<?xml version="1.0" encoding="UTF-8"?>
<svg id="Layer_2" data-name="Layer 2" xmlns="http://www.w3.org/2000/svg" viewBox="0 0 48 48">
  <defs>
    <style>
      .cls-1 {
        fill: none;
      }

      .cls-1, .cls-2, .cls-3, .cls-4, .cls-5 {
        stroke-width: 0px;
      }

      .cls-2 {
        fill: #f4b400;
      }

      .cls-3 {
        fill: #0f9d58;
      }

      .cls-4 {
        fill: #4285f4;
      }

      .cls-5 {
        fill: #db4437;
      }
    </style>
  </defs>
  <g id="Layer_1-2" data-name="Layer 1">
    <g>
      <rect class="cls-1" width="48" height="48"/>
      <path class="cls-2" d="M32.07,3.84h4.84c.89,0,1.61.72,1.61,1.61v21.4h-6.45V3.84h0Z"/>
      <path class="cls-4" d="M15.93,26.85V10.3h0V3.84h-4.84c-.89,0-1.61.72-1.61,1.61v22.87c0,.86.34,1.68.95,2.28l8.94,8.92,4.63-4.63-8.07-8.05Z"/>
      <rect class="cls-3" x="15.93" y="3.84" width="16.14" height="6.45"/>
      <path class="cls-5" d="M38.52,20.41v7.91c0,.86-.34,1.68-.95,2.28l-12.44,12.41c-.63.63-1.65.63-2.28,0l-3.49-3.49,19.16-19.12Z"/>
    </g>
  </g>
</svg>